<svg width="30" height="30" viewBox="0 0 30 30" fill="none" xmlns="http://www.w3.org/2000/svg">
<g id="Electric car" clip-path="url(#clip0_74_840)">
<g id="Group">
<path id="Vector" d="M23.65 2.5125C23.4 1.775 22.7 1.25 21.875 1.25H8.125C7.3 1.25 6.6125 1.775 6.35 2.5125L3.75 10V20C3.75 20.6875 4.3125 21.25 5 21.25H6.25C6.9375 21.25 7.5 20.6875 7.5 20V18.75H22.5V20C22.5 20.6875 23.0625 21.25 23.75 21.25H25C25.6875 21.25 26.25 20.6875 26.25 20V10L23.65 2.5125ZM8.125 15C7.0875 15 6.25 14.1625 6.25 13.125C6.25 12.0875 7.0875 11.25 8.125 11.25C9.1625 11.25 10 12.0875 10 13.125C10 14.1625 9.1625 15 8.125 15ZM21.875 15C20.8375 15 20 14.1625 20 13.125C20 12.0875 20.8375 11.25 21.875 11.25C22.9125 11.25 23.75 12.0875 23.75 13.125C23.75 14.1625 22.9125 15 21.875 15ZM6.25 8.75L8.125 3.125H21.875L23.75 8.75H6.25Z" fill="#EB3223"/>
<path id="Vector_2" d="M8.75 25H13.75V22.5L21.25 26.25H16.25V28.75L8.75 25Z" fill="#EB3223"/>
</g>
</g>
<defs>
<clipPath id="clip0_74_840">
<rect width="30" height="30" fill="white"/>
</clipPath>
</defs>
</svg>
